STARTFONT 2.1
COMMENT the Lisp Machine name for this font was "s50chs.ast"
FONT chs-s50.bdf
SIZE 48 75 75
FONTBOUNDINGBOX 50 40 0 0
STARTPROPERTIES 3
FONT_DESCENT 10
FONT_ASCENT 40
COPYRIGHT "Public domain font.  Share and enjoy."
ENDPROPERTIES
CHARS 35
STARTCHAR C040
ENCODING 32
SWIDTH 1041 0
DWIDTH 50 0
BBX 50 50 0 -10
BITMAP
00
00
00
00
00
00
00
00
00
00
00
00
00
00
00
00
00
00
00
00
00
00
00
00
00
00
00
00
00
00
00
00
00
00
00
00
00
00
00
00
00
00
00
00
00
00
00
00
00
00
ENDCHAR
STARTCHAR 0
ENCODING 48
SWIDTH 1041 0
DWIDTH 50 0
BBX 50 50 0 -10
BITMAP
00
00
00
00
00
00
00
00
00
00
00
00
00
00
00
00
00
00
00
00
00
00
00
00
00
00
00
00
00
00
00
00
00
00
00
00
00
00
00
00
00
00
00
00
00
00
00
00
00
00
ENDCHAR
STARTCHAR 1
ENCODING 49
SWIDTH 1041 0
DWIDTH 50 0
BBX 50 50 0 -10
BITMAP
c0300c0300c000
80601806018040
00c0300c0300c0
01806018060180
0300c0300c0300
06018060180600
0c0300c0300c00
18060180601800
300c0300c03000
60180601806000
c0300c0300c000
80601806018040
00c0300c0300c0
01806018060180
0300c0300c0300
06018060180600
0c0300c0300c00
18060180601800
300c0300c03000
60180601806000
c0300c0300c000
80601806018040
00c0300c0300c0
01806018060180
0300c0300c0300
06018060180600
0c0300c0300c00
18060180601800
300c0300c03000
60180601806000
c0300c0300c000
80601806018040
00c0300c0300c0
01806018060180
0300c0300c0300
06018060180600
0c0300c0300c00
18060180601800
300c0300c03000
60180601806000
c0300c0300c000
80601806018040
00c0300c0300c0
01806018060180
0300c0300c0300
06018060180600
0c0300c0300c00
18060180601800
300c0300c03000
60180601806000
ENDCHAR
STARTCHAR 2
ENCODING 50
SWIDTH 145 0
DWIDTH 7 0
BBX 7 50 0 -10
BITMAP
00
00
00
00
00
00
00
00
00
00
00
00
00
00
00
00
00
00
00
00
00
00
00
00
00
00
00
00
00
00
00
00
00
00
00
00
00
00
00
00
00
00
00
fe
fe
fe
fe
f0
f0
f0
ENDCHAR
STARTCHAR 3
ENCODING 51
SWIDTH 1041 0
DWIDTH 50 0
BBX 50 50 0 -10
BITMAP
00000000000000
00000000000000
00000000000000
00000000000000
00000000000000
00000000000000
00000000000000
00000000000000
00000000000000
00000000000000
00000000000000
00000000000000
00000000000000
00000000000000
00000000000000
00000000000000
00000000000000
00000000000000
00000000000000
00000000000000
00000000000000
00000000000000
00000000000000
00000000000000
00000000000000
00000000000000
00000000000000
00000000000000
00000000000000
00000000000000
00000000000000
00000000000000
00000000000000
00000000000000
00000000000000
00000000000000
00000000000000
00000000000000
00000000000000
00000000000000
00000000000000
00000000000000
00000000000000
ffffffffffffc0
ffffffffffffc0
ffffffffffffc0
ffffffffffffc0
00000000000000
00000000000000
00000000000000
ENDCHAR
STARTCHAR 4
ENCODING 52
SWIDTH 145 0
DWIDTH 7 0
BBX 7 50 0 -10
BITMAP
00
00
00
00
00
00
00
00
00
00
00
00
00
00
00
00
00
00
00
00
00
00
00
00
00
00
00
00
00
00
00
00
00
00
00
00
00
00
00
00
00
00
00
fe
fe
fe
fe
1e
1e
1e
ENDCHAR
STARTCHAR 5
ENCODING 53
SWIDTH 145 0
DWIDTH 7 0
BBX 7 50 0 -10
BITMAP
f0
f0
f0
f0
f0
f0
f0
f0
f0
f0
f0
f0
f0
f0
f0
f0
f0
f0
f0
f0
f0
f0
f0
f0
f0
f0
f0
f0
f0
f0
f0
f0
f0
f0
f0
f0
f0
f0
f0
f0
f0
f0
f0
f0
f0
f0
f0
f0
f0
f0
ENDCHAR
STARTCHAR 6
ENCODING 54
SWIDTH 145 0
DWIDTH 7 0
BBX 7 50 0 -10
BITMAP
1e
1e
1e
fe
fe
fe
fe
00
00
00
00
00
00
00
00
00
00
00
00
00
00
00
00
00
00
00
00
00
00
00
00
00
00
00
00
00
00
00
00
00
00
00
00
00
00
00
00
00
00
00
ENDCHAR
STARTCHAR 7
ENCODING 55
SWIDTH 1041 0
DWIDTH 50 0
BBX 50 50 0 -10
BITMAP
00000000000000
00000000000000
00000000000000
ffffffffffffc0
ffffffffffffc0
ffffffffffffc0
ffffffffffffc0
00000000000000
00000000000000
00000000000000
00000000000000
00000000000000
00000000000000
00000000000000
00000000000000
00000000000000
00000000000000
00000000000000
00000000000000
00000000000000
00000000000000
00000000000000
00000000000000
00000000000000
00000000000000
00000000000000
00000000000000
00000000000000
00000000000000
00000000000000
00000000000000
00000000000000
00000000000000
00000000000000
00000000000000
00000000000000
00000000000000
00000000000000
00000000000000
00000000000000
00000000000000
00000000000000
00000000000000
00000000000000
00000000000000
00000000000000
00000000000000
00000000000000
00000000000000
00000000000000
ENDCHAR
STARTCHAR 8
ENCODING 56
SWIDTH 145 0
DWIDTH 7 0
BBX 7 50 0 -10
BITMAP
f0
f0
f0
fe
fe
fe
fe
00
00
00
00
00
00
00
00
00
00
00
00
00
00
00
00
00
00
00
00
00
00
00
00
00
00
00
00
00
00
00
00
00
00
00
00
00
00
00
00
00
00
00
ENDCHAR
STARTCHAR 9
ENCODING 57
SWIDTH 145 0
DWIDTH 7 0
BBX 7 50 0 -10
BITMAP
f0
f0
f0
f0
f0
f0
f0
f0
f0
f0
f0
f0
f0
f0
f0
f0
f0
f0
f0
f0
f0
f0
f0
f0
f0
f0
f0
f0
f0
f0
f0
f0
f0
f0
f0
f0
f0
f0
f0
f0
f0
f0
f0
f0
f0
f0
f0
f0
f0
f0
ENDCHAR
STARTCHAR @
ENCODING 64
SWIDTH 1041 0
DWIDTH 50 0
BBX 50 50 0 -10
BITMAP
0000000000
0000000000
0000000000
0000000000
0000000000
0000000000
0000780000
0000480000
0000480000
0000480000
0007cf8000
0004008000
0004008000
0007cf8000
0000480000
0070483800
01fe49fe00
0707cf8380
0c01ce00c0
1800780060
3000300030
2000300010
6000300018
c00030000c
c00030000c
8000300004
8078007804
804c00c804
c0c4008c0c
4186018608
4102010208
6102010218
2183030610
2081020410
30c1020c30
1041020820
1fffffffe0
0fffffffc0
0c000000c0
0c000000c0
0c303030c0
0c303030c0
0c000000c0
0c000000c0
0fffffffc0
0fffffffc0
0000000000
0000000000
0000000000
0000000000
ENDCHAR
STARTCHAR A
ENCODING 65
SWIDTH 1041 0
DWIDTH 50 0
BBX 50 50 0 -10
BITMAP
c0300c0300c000
80601806018040
00c0300c0300c0
01806018060180
0300c0000c0300
06018000180600
0c0301e0300c00
18060120601800
300c0120c03000
60180120006000
c0301f3e00c000
80601002018040
00c010020300c0
01801f3e060180
03000120000300
0601c120e00600
0c07f927f80c00
181c1f3e0e1800
30300738031000
606001e0018000
c0c000c000c000
808000c0004040
018000c00060c0
030000c0003180
030000c0003300
020000c0001200
0201e001e01000
12013003201000
33031002303000
61061806182000
c1040804082000
81840804086040
00860c0c1840c0
00820408104180
00c3040830c300
06410408208600
0c7fffffff8c00
183fffffff1800
30300000033000
60300000032000
c030c0c0c30000
8030c0c0c30040
003000000300c0
01300000030180
033fffffff0300
063fffffff0600
0c000000000c00
18000000001800
300c0300c03000
60180601806000
ENDCHAR
STARTCHAR B
ENCODING 66
SWIDTH 1041 0
DWIDTH 50 0
BBX 50 50 0 -10
BITMAP
0000000000
0000000000
0000000000
0000000000
0000000000
0000000000
0000000000
0000000000
0000000000
0000000000
0000000000
0000000000
0000000000
e000000070
b0000000d0
d8000001b0
6818018160
2818018140
280c030140
280e070140
280a050140
2c0a050340
240a050240
340a0502c0
140a050280
140a050280
140a050280
160b0d0680
1209090480
1a0d0b0580
0a050a0500
0a05fa0500
0b1fff8d00
097801e900
09e0007900
0fffffff00
0fffffff00
0c00000300
0c00000300
0c00000300
0c3060c300
0c3060c300
0c00000300
0c00000300
0fffffff00
0fffffff00
0000000000
0000000000
0000000000
0000000000
ENDCHAR
STARTCHAR C
ENCODING 67
SWIDTH 1041 0
DWIDTH 50 0
BBX 50 50 0 -10
BITMAP
c0300c0300c000
80601806018040
00c0300c0300c0
01806018060180
0300c0300c0300
06018060180600
0c0300c0300c00
18060180601800
300c0300c03000
60000601800000
c0000c03000000
80000000000040
000000000000c0
01c0000000e180
0160000001a100
01b00000036000
00d0300302c000
10503003028000
30501806028000
60501c0e028000
c050140a028000
8058140a068040
0048140a0480c0
0068140a058180
0028140a050300
0028140a050600
0828140a050400
182c161a0d0000
30241212090000
60341a160b0000
c0140a140a0000
80140bf40a0040
00163fff1a00c0
0012f003d20180
0013c000f20300
001ffffffe0600
081ffffffe0c00
18180000060800
30180000060000
60180000060000
c01860c1860000
801860c1860040
001800000600c0
00180000060180
001ffffffe0300
001ffffffe0600
0c000000000c00
18000000001800
30000000003000
60180601806000
ENDCHAR
STARTCHAR D
ENCODING 68
SWIDTH 1041 0
DWIDTH 50 0
BBX 50 50 0 -10
BITMAP
00000000
00000000
00000000
00000000
00000000
00000000
00000000
00000000
00000000
00000000
1f0fc3e0
11084220
11f87e20
10000020
10000020
10000020
10000020
10000020
1fffffe0
00601800
00601800
00c00c00
00c00c00
01800600
01800600
03000300
03000300
06000180
06000180
0c0000c0
0c0000c0
18000060
18000060
30000030
30000030
60000018
60000018
c000000c
c000000c
80000004
fffffffc
80000004
80000004
80000004
fffffffc
fffffffc
00000000
00000000
00000000
00000000
ENDCHAR
STARTCHAR E
ENCODING 69
SWIDTH 1041 0
DWIDTH 50 0
BBX 50 50 0 -10
BITMAP
c0300c0300c000
80601806018040
00c0300c0300c0
01806018060180
0300c0300c0300
06000000000600
0c000000000c00
18000000001800
30000000003000
60000000002000
c007c3f0f80000
80044210880040
00047e1f8800c0
01040000080180
03040000080300
06040000080600
0c040000080c00
18040000081800
3007fffff83000
60001806006000
c0001806004000
80003003000040
008030030000c0
01806001800180
03006001800300
0600c000c00600
0c00c000c00c00
18018000601800
30018000603000
60030000306000
c0030000304000
80060000180040
000600001800c0
000c00000c0180
000c00000c0300
04180000060600
0c180000060400
18300000030000
30300000030000
60200000010000
c03fffffff0000
80200000010040
002000000100c0
00200000010180
003fffffff0300
003fffffff0600
08000000000c00
18000000001800
30000000003000
60180601806000
ENDCHAR
STARTCHAR F
ENCODING 70
SWIDTH 1041 0
DWIDTH 50 0
BBX 50 50 0 -10
BITMAP
0000000000
0000000000
0000000000
0000000000
0000000000
0000000000
0000000000
0000c00000
0001e00000
0003300000
0006180000
000c0c0000
0018060000
0030030000
0060060000
00400c0000
00c0180000
0080300000
008060c000
018043c000
01004e6000
0100782000
0100002000
0180006000
0080004000
0080004000
0080c04000
0080c04000
00c3f0c000
0043f08000
0040c08000
0040c08000
0060c18000
0020010000
0020010000
0030030000
0010020000
0018060000
0008040000
000c0c0000
0004080000
0006180000
0002100000
0003f00000
ffffffffc0
ffffffffc0
0000000000
0000000000
0000000000
0000000000
ENDCHAR
STARTCHAR G
ENCODING 71
SWIDTH 1041 0
DWIDTH 50 0
BBX 50 50 0 -10
BITMAP
c0300c0300c000
80601806018040
00c0300c0300c0
01806000060180
0300c0000c0300
06018000180600
0c030000300c00
180600c0001800
300c01e0003000
60180330006000
c030061800c000
80600c0c018040
00c018060300c0
01803003020180
03006006000300
0600400c000600
0c00c018000c00
18008030001800
30008060c03000
60018043c06000
c021004e60c000
80610078218040
00c100002100c0
01818000600180
03008000400300
06008000400600
0c0080c0400c00
180080c0401800
3000c3f0c03000
601043f0806000
c03040c080c000
806040c0818040
00c060c18300c0
01802001020180
03002001000300
06003003000600
0c001002000c00
18001806001800
30000804003000
60000c0c006000
c0000408000000
80000618000040
000002100000c0
000003f0000180
00ffffffffc300
00ffffffffc200
00000000000000
10000000000000
30000000000000
60180601806000
ENDCHAR
STARTCHAR H
ENCODING 72
SWIDTH 1041 0
DWIDTH 50 0
BBX 50 50 0 -10
BITMAP
0000000000
0000000000
0000000000
0000000000
0000000000
0000000000
0000000000
0000000000
0000000000
001c000000
001f000000
0019c00000
0008700000
00081c0000
0018060000
0030030000
0060018000
00c600c000
0184006000
0300002000
0600003000
0400001800
0c00000c00
1800000400
3000000600
2003800200
600ec00300
4018600100
c070600180
c3c0600080
7e00c00080
38018000c0
0003000040
0006000040
001c000060
0030000060
00e0000060
0180000060
0300000060
0e00000060
1800000060
3000000060
6000000060
6000000060
7fffffffe0
7fffffffe0
0000000000
0000000000
0000000000
0000000000
ENDCHAR
STARTCHAR I
ENCODING 73
SWIDTH 1041 0
DWIDTH 50 0
BBX 50 50 0 -10
BITMAP
c0300c0300c000
80601806018040
00c0300c0300c0
01806018060180
0300c0300c0300
06018060180600
0c030000300c00
18060000601800
300c0000c03000
60183800006000
c0303e0000c000
80603380018040
00c010e00300c0
01801038060180
0300300c040300
06006006000600
0c00c003000c00
18018c01801800
30030800c03000
60060000406000
c00c0000604000
80080000300040
001800001800c0
00300000080180
006000000c0300
00400700040600
00c01d80060c00
008030c0020800
2180e0c0030000
618780c0010000
c0fc0180010000
80700300018040
000006000080c0
00000c00008180
0000380000c300
0000600000c200
0801c00000c000
1803000000c000
3006000000c000
601c000000c000
c030000000c000
8060000000c040
00c0000000c0c0
00c0000000c180
00ffffffffc300
00ffffffffc200
00000000000000
10000000000000
30000000000000
60180601806000
ENDCHAR
STARTCHAR J
ENCODING 74
SWIDTH 1041 0
DWIDTH 50 0
BBX 50 50 0 -10
BITMAP
00000000
00000000
00000000
00000000
00000000
00000000
00000000
00000000
00000000
00000000
00000000
00000000
00000000
00030000
000fc000
00387000
00601800
00400800
00c00c00
00800400
01800600
01800600
00800400
00c00c00
00400800
00601800
00387000
001fe000
00102000
00102000
00303000
00303000
00201000
00201000
00601800
00400800
00400800
00400800
01c00e00
07000380
1c0000e0
70000038
c000000c
c000000c
fffffffc
fffffffc
00000000
00000000
00000000
00000000
ENDCHAR
STARTCHAR K
ENCODING 75
SWIDTH 1041 0
DWIDTH 50 0
BBX 50 50 0 -10
BITMAP
c0300c0300c000
80601806018040
00c0300c0300c0
01806018060180
0300c0300c0300
06018060180600
0c0300c0300c00
18060180601800
300c0300c03000
60180601806000
c030000100c000
80600000018040
00c000000300c0
018000c0060180
030003f00c0300
06000e1c080600
0c001806000c00
18041002001800
300c3003003000
60182001006000
c030600180c000
80606001818040
00c020010300c0
01803003060180
03001002040300
06001806000600
0c000e1c000c00
180407f8001800
300c0408003000
60180408006000
c0300c0c00c000
80600c0c018040
00c008040300c0
01800804060180
03001806040300
06001002000600
0c001002000c00
18001002001800
30007003801000
6001c000e00000
c0070000380000
801c00000e0040
003000000300c0
00300000030180
003fffffff0300
043fffffff0600
0c000000000c00
18000000001800
30000000003000
60180601806000
ENDCHAR
STARTCHAR `
ENCODING 96
SWIDTH 1041 0
DWIDTH 50 0
BBX 50 50 0 -10
BITMAP
0000000000
0000000000
0000000000
0000000000
0000000000
0000000000
0000000000
0000300000
0000300000
0000300000
0000300000
0003ff0000
0003ff0000
0000300000
0000300000
0070303800
01fe31fe00
07ffb7ff80
0fffffffc0
1fffffffe0
3fffcffff0
3fffcffff0
7fffcffff8
ffffcffffc
ffffcffffc
ffffcffffc
ff87ff87fc
ff83ff07fc
ff03ff03fc
7e01fe01f8
7e01fe01f8
7e01fe01f8
3e00fc01f0
3f00fc03f0
3f00fc03f0
1f80fc07e0
1fffffffe0
0fffffffc0
0fffffffc0
0fffffffc0
0fcfcfcfc0
0fcfcfcfc0
0fffffffc0
0fffffffc0
0fffffffc0
0fffffffc0
0000000000
0000000000
0000000000
0000000000
ENDCHAR
STARTCHAR a
ENCODING 97
SWIDTH 1041 0
DWIDTH 50 0
BBX 50 50 0 -10
BITMAP
c0300c0300c000
80601806018040
00c0300c0300c0
01806000060180
0300c0000c0300
06018000180600
0c030000300c00
180600c0001800
300c00c0003000
601800c0006000
c03000c0004000
80600ffc000040
00c00ffc0000c0
018000c0000180
030000c0000300
0601c0c0e00200
0c07f8c7f80000
181ffedffe0000
303fffffff0000
607fffffff8000
c0ffff3fffc000
80ffff3fffc040
01ffff3fffe0c0
03ffff3ffff080
03ffff3ffff000
03ffff3ffff000
03fe1ffe1ff000
03fe0ffc1ff000
23fc0ffc0ff000
61f807f807e000
c1f807f807e000
81f807f807e040
00f803f007c0c0
00fc03f00fc180
00fc03f00fc300
007e03f01f8200
087fffffff8000
183fffffff0000
30300000030000
60300000030000
c030c0c0c30000
8030c0c0c30040
003000000300c0
00300000030180
003fffffff0300
043fffffff0600
0c000000000c00
18000000001800
30000000003000
60180601806000
ENDCHAR
STARTCHAR b
ENCODING 98
SWIDTH 1041 0
DWIDTH 50 0
BBX 50 50 0 -10
BITMAP
0000000000
0000000000
0000000000
0000000000
0000000000
0000000000
0000000000
0000000000
0000000000
0000000000
0000000000
0000000000
0000000000
e000000070
f0000000f0
f8000001f0
78180181e0
78180181e0
380c0301c0
380e0701c0
380e0701c0
3c0e0703c0
3c0e0703c0
3c0e0703c0
1c0e070380
1c0e070380
1c0e070380
1e0f0f0780
1e0f0f0780
1e0f0f0780
0e070e0700
0e07fe0700
0f1fff8f00
0f7801ef00
0fe0007f00
0fffffff00
0fffffff00
0fffffff00
0fffffff00
0fffffff00
0fcf9f3f00
0fcf9f3f00
0fffffff00
0fffffff00
0fffffff00
0fffffff00
0000000000
0000000000
0000000000
0000000000
ENDCHAR
STARTCHAR c
ENCODING 99
SWIDTH 1041 0
DWIDTH 50 0
BBX 50 50 0 -10
BITMAP
c0300c0300c000
80601806018040
00c0300c0300c0
01806018060180
0300c0300c0300
06018060180600
0c0300c0300c00
18060180601800
300c0300c03000
60000601800000
c0000c03000000
80000000000040
000000000000c0
01c0000000e180
01e0000001e100
01f0000003e000
00f0300303c000
10f0300303c000
30701806038000
60701c0e038000
c0701c0e038000
80781c0e078040
00781c0e0780c0
00781c0e078180
00381c0e070300
00381c0e070600
08381c0e070400
183c1e1e0f0000
303c1e1e0f0000
603c1e1e0f0000
c01c0e1c0e0000
801c0ffc0e0040
001e3fff1e00c0
001ef003de0180
001fc000fe0300
001ffffffe0600
081ffffffe0c00
181ffffffe0800
301ffffffe0000
601ffffffe0000
c01f9f3e7e0000
801f9f3e7e0040
001ffffffe00c0
001ffffffe0180
001ffffffe0300
001ffffffe0600
0c000000000c00
18000000001800
30000000003000
60180601806000
ENDCHAR
STARTCHAR d
ENCODING 100
SWIDTH 1041 0
DWIDTH 50 0
BBX 50 50 0 -10
BITMAP
00000000
00000000
00000000
00000000
00000000
00000000
00000000
00000000
00000000
00000000
1f0fc3e0
1f0fc3e0
1fffffe0
1fffffe0
1ff7ffe0
1ffffde0
1f7fffe0
1fffbfe0
1fffffe0
007ff800
0077f800
00fffc00
00ffbc00
01fffe00
01f7fe00
03ffff00
03ffef00
07ffff80
07dfff80
0fffffc0
0ffff7c0
1fffffe0
1f7dffe0
3ffffff0
3ffffef0
7dfffff8
7ffffff8
fffffffc
fffffffc
c000000c
c000000c
c000000c
fffffffc
fffffffc
fffffffc
fffffffc
00000000
00000000
00000000
00000000
ENDCHAR
STARTCHAR e
ENCODING 101
SWIDTH 1041 0
DWIDTH 50 0
BBX 50 50 0 -10
BITMAP
c0300c0300c000
80601806018040
00c0300c0300c0
01806018060180
0300c0300c0300
06018060180600
0c000000000c00
18000000001800
30000000003000
60000000002000
c007c3f0f80000
8007c3f0f80040
0007fffff800c0
0107fffff80180
0307fdfff80300
0607ffff780600
0c07dffff80c00
1807ffeff81800
3007fffff81000
60001ffe000000
c0001dfe000000
80003fff000040
00803fef0000c0
01807fff800180
03007dff800300
0600ffffc00600
0c00fffbc00c00
1801ffffe01800
3001f7ffe01000
6003fffff00000
c003fffdf00000
8007fffff80040
0007df7ff800c0
000ffffffc0180
000fffffbc0300
041f7ffffe0600
0c1ffffffe0c00
183fffffff0800
303fffffff0000
60300000030000
c0300000030000
80300000030040
003fffffff00c0
003fffffff0180
003fffffff0300
003fffffff0600
0c000000000c00
18000000001800
30000000003000
60180601806000
ENDCHAR
STARTCHAR f
ENCODING 102
SWIDTH 1041 0
DWIDTH 50 0
BBX 50 50 0 -10
BITMAP
0000000000
0000000000
0000000000
0000000000
0000000000
0000000000
0000000000
0000c00000
0001e00000
0003f00000
0007f80000
000ffc0000
001ffe0000
003fff0000
007ffe0000
007ffc0000
00fff80000
00fff00000
00ffe0c000
01ffc3c000
01ffcfe000
01ffffe000
01ffffe000
01ffffe000
00ffffc000
00ffffc000
00ff3fc000
00ff3fc000
00fc0fc000
007c0f8000
007f3f8000
007f3f8000
007f3f8000
003fff0000
003fff0000
003fff0000
001ffe0000
001ffe0000
000ffc0000
000ffc0000
0007f80000
0007f80000
0003f00000
0003f00000
ffffffffc0
ffffffffc0
0000000000
0000000000
0000000000
0000000000
ENDCHAR
STARTCHAR g
ENCODING 103
SWIDTH 1041 0
DWIDTH 50 0
BBX 50 50 0 -10
BITMAP
c0300c0300c000
80601806018040
00c0300c0300c0
01806000060180
0300c0000c0300
06018000180600
0c030000300c00
180600c0001800
300c01e0003000
601803f0006000
c03007f800c000
80600ffc018040
00c01ffe0300c0
01803fff020180
03007ffe000300
06007ffc000600
0c00fff8000c00
1800fff0001800
3000ffe0c03000
6001ffc3c06000
c021ffcfe0c000
8061ffffe18040
00c1ffffe100c0
0181ffffe00180
0300ffffc00300
0600ffffc00600
0c00ff3fc00c00
1800ff3fc01800
3000fc0fc03000
60107c0f806000
c0307f3f80c000
80607f3f818040
00c07f3f8300c0
01803fff020180
03003fff000300
06003fff000600
0c001ffe000c00
18001ffe001800
30000ffc003000
60000ffc006000
c00007f8000000
800007f8000040
000003f00000c0
000003f0000180
00ffffffffc300
00ffffffffc200
00000000000000
10000000000000
30000000000000
60180601806000
ENDCHAR
STARTCHAR h
ENCODING 104
SWIDTH 1041 0
DWIDTH 50 0
BBX 50 50 0 -10
BITMAP
0000000000
0000000000
0000000000
0000000000
0000000000
0000000000
0000000000
0000000000
0000000000
001c000000
001f000000
001fc00000
000ff00000
000efc0000
001ffe0000
003ffb0000
007fff8000
00f3ffc000
01f7bfe000
03ffffe000
07fffff000
07fffff800
0ffffbfc00
1feffffc00
3dfffffe00
3ffffffe00
7ffeffef00
7ff87bff00
eff07fff80
ffc07fff80
7e00ffff80
3801ffffc0
0003fdffc0
0007ffffc0
001fffffe0
003ffffde0
00feffbfe0
01ffffffe0
03efefffe0
0fffffffe0
1fffffffe0
3fffffffe0
6000000060
6000000060
7fffffffe0
7fffffffe0
0000000000
0000000000
0000000000
0000000000
ENDCHAR
STARTCHAR i
ENCODING 105
SWIDTH 1041 0
DWIDTH 50 0
BBX 50 50 0 -10
BITMAP
c0300c0300c000
80601806018040
00c0300c0300c0
01806018060180
0300c0300c0300
06018060180600
0c030000300c00
18060000601800
300c0000c03000
60183800806000
c0303e0000c000
80603f80018040
00c01fe00300c0
01801df8060180
03003ffc040300
06007ff6000600
0c00ffff000c00
1801e7ff801800
3003ef7fc03000
6007ffffc06000
c00fffffe04000
800ffffff00040
001ffff7f800c0
003fdffff80180
007bfffffc0300
007ffffffc0600
00fffdffde0c00
00fff0f7fe0800
21dfe0ffff0000
61ff80ffff0000
c0fc01ffff0000
807003ffff8040
000007fbff80c0
00000fffff8180
00003fffffc300
00007ffffbc200
0801fdff7fc000
1803ffffffc000
3007dfdfffc000
601fffffffc000
c03fffffffc000
807fffffffc040
00c0000000c0c0
00c0000000c180
00ffffffffc300
00ffffffffc200
00000000000000
10000000000000
30000000000000
60180601806000
ENDCHAR
STARTCHAR j
ENCODING 106
SWIDTH 1041 0
DWIDTH 50 0
BBX 50 50 0 -10
BITMAP
00000000
00000000
00000000
00000000
00000000
00000000
00000000
00000000
00000000
00000000
00000000
00000000
00000000
00030000
000fc000
003ff000
007ff800
007ff800
00fffc00
00fffc00
01fffe00
01fffe00
00fffc00
00fffc00
007ff800
007ff800
003ff000
001fe000
001fe000
001fe000
003ff000
003ff000
003ff000
003ff000
007ff800
007ff800
007ff800
007ff800
01fffe00
07ffff80
1fffffe0
7c0000f8
f000003c
fffffffc
fffffffc
fffffffc
00000000
00000000
00000000
00000000
ENDCHAR
STARTCHAR k
ENCODING 107
SWIDTH 1041 0
DWIDTH 50 0
BBX 50 50 0 -10
BITMAP
c0300c0300c000
80601806018040
00c0300c0300c0
01806018060180
0300c0700c0300
060180c0180600
0c030180300c00
18060300601800
300c0600c03000
60180c01806000
c030180100c000
80600000018040
00c000000300c0
018000c0060180
030003f00c0300
06000ffc080600
0c001ffe000c00
18001ffe001800
30083fff003000
60183fff006000
c0307fff80c000
80607fff818040
00c03fff0300c0
01803fff060180
03001ffe040300
06001ffe000600
0c000ffc000c00
180007f8001800
300807f8003000
601807f8006000
c0300ffc00c000
80600ffc018040
00c00ffc0300c0
01800ffc060180
03001ffe040300
06001ffe000600
0c001ffe000c00
18001ffe001800
30007fff801000
6001ffffe00000
c007fffff80000
801f00003e0040
003c00000f00c0
003fffffff0180
003fffffff0300
043fffffff0600
0c000000000c00
18000000001800
30000000003000
60180601806000
ENDCHAR
ENDFONT
